<?xml version="1.0" encoding="UTF-8"?>
<!DOCTYPE svg PUBLIC "-//W3C//DTD SVG 1.1//EN" "http://www.w3.org/Graphics/SVG/1.1/DTD/svg11.dtd">
<svg xmlns="http://www.w3.org/2000/svg" version="1.1" width="3238px" height="1214px" style="shape-rendering:geometricPrecision; text-rendering:geometricPrecision; image-rendering:optimizeQuality; fill-rule:evenodd; clip-rule:evenodd" xmlns:xlink="http://www.w3.org/1999/xlink">
<g><path style="opacity:1" fill="#3c6888" d="M 820.5,400.5 C 802.958,386.803 784.958,373.636 766.5,361C 704.793,324.365 639.46,316.365 570.5,337C 481.58,367.013 424.414,427.18 399,517.5C 395.317,526.507 389.484,533.673 381.5,539C 366.205,545.763 351.205,553.096 336.5,561C 273.597,600.972 244.763,658.472 250,733.5C 254.896,778.345 275.063,814.512 310.5,842C 319.654,849.079 329.32,855.413 339.5,861C 343.032,864.033 346.032,867.533 348.5,871.5C 289.7,875.515 243.866,853.182 211,804.5C 182.659,754.374 180.326,703.041 204,650.5C 230.812,591.484 275.646,553.651 338.5,537C 344.82,534.014 348.987,529.181 351,522.5C 387.767,382.911 478.267,308.578 622.5,299.5C 632.89,299.642 643.223,300.475 653.5,302C 665.954,304.364 678.287,307.197 690.5,310.5C 697.809,309.368 702.975,305.368 706,298.5C 749.012,191.529 827.845,130.029 942.5,114C 1008,111.295 1068.67,126.962 1124.5,161C 1156.75,183.253 1183.59,210.753 1205,243.5C 1212.25,255.671 1219.25,268.004 1226,280.5C 1231.87,287.685 1239.37,292.185 1248.5,294C 1293.21,299.226 1333.21,315.559 1368.5,343C 1381.83,355 1395.17,367 1408.5,379C 1415.72,383.182 1423.38,386.182 1431.5,388C 1478.79,390.539 1521.79,405.206 1560.5,432C 1568.13,440.016 1567.13,442.349 1557.5,439C 1504.69,408.218 1447.69,395.218 1386.5,400C 1374.61,398.051 1363.94,393.384 1354.5,386C 1332.35,366.532 1308.01,350.199 1281.5,337C 1260.19,327.088 1237.85,320.755 1214.5,318C 1208.8,315.635 1204.3,311.801 1201,306.5C 1162.61,232.453 1103.11,184.619 1022.5,163C 938.207,147.076 862.207,165.076 794.5,217C 779.553,229.61 766.386,243.777 755,259.5C 745.248,274.672 735.248,289.672 725,304.5C 719.724,312.436 720.557,319.603 727.5,326C 759.008,341.83 786.841,362.663 811,388.5C 814.381,392.375 817.547,396.375 820.5,400.5 Z"/></g>
<g><path style="opacity:1" fill="#4b7491" d="M 820.5,400.5 C 821.167,400.5 821.5,400.833 821.5,401.5C 821.167,401.167 820.833,400.833 820.5,400.5 Z"/></g>
<g><path style="opacity:1" fill="#63879f" d="M 821.5,401.5 C 822.167,401.5 822.5,401.833 822.5,402.5C 822.167,402.167 821.833,401.833 821.5,401.5 Z"/></g>
<g><path style="opacity:1" fill="#8ea8ba" d="M 822.5,402.5 C 823.833,403.167 823.833,403.167 822.5,402.5 Z"/></g>
<g><path style="opacity:1" fill="#797979" d="M 1997.5,432.5 C 2012.5,432.5 2027.5,432.5 2042.5,432.5C 2042.33,549.167 2042.5,665.834 2043,782.5C 2045.33,800.833 2055.66,809.833 2074,809.5C 2080.57,809.432 2087.07,808.765 2093.5,807.5C 2093.5,820.833 2093.5,834.167 2093.5,847.5C 2075.82,851.766 2058.15,851.933 2040.5,848C 2017.36,839.509 2003.53,823.009 1999,798.5C 1997.51,676.526 1997.01,554.526 1997.5,432.5 Z"/></g>
<g><path style="opacity:1" fill="#a6a6a6" d="M 2977.5,432.5 C 2977.83,490.837 2977.5,549.17 2976.5,607.5C 2975.89,607.376 2975.56,607.043 2975.5,606.5C 2976.17,548.5 2976.83,490.5 2977.5,432.5 Z"/></g>
<g><path style="opacity:1" fill="#797979" d="M 2977.5,432.5 C 2992.17,432.5 3006.83,432.5 3021.5,432.5C 3021.5,571.5 3021.5,710.5 3021.5,849.5C 3006.5,849.5 2991.5,849.5 2976.5,849.5C 2976.67,833.497 2976.5,817.497 2976,801.5C 2958.27,832.133 2931.77,849.967 2896.5,855C 2832.47,860.75 2790.31,833.25 2770,772.5C 2760.04,733.838 2760.04,695.171 2770,656.5C 2792.3,587.091 2839.8,555.924 2912.5,563C 2940.26,567.953 2961.26,582.453 2975.5,606.5C 2975.56,607.043 2975.89,607.376 2976.5,607.5C 2977.5,549.17 2977.83,490.837 2977.5,432.5 Z M 2883.5,599.5 C 2925.34,595.491 2954.84,612.491 2972,650.5C 2973.65,655.754 2974.98,661.087 2976,666.5C 2976.67,690.5 2976.67,714.5 2976,738.5C 2972.38,768.254 2958.22,791.42 2933.5,808C 2903.91,822.781 2874.91,821.781 2846.5,805C 2822.96,785.129 2810.46,759.629 2809,728.5C 2805.89,697.253 2811.22,667.586 2825,639.5C 2838.44,617.218 2857.94,603.885 2883.5,599.5 Z"/></g>
<g><path style="opacity:1" fill="#3d6989" d="M 1330.5,485.5 C 1331.17,512.833 1331.83,540.167 1332.5,567.5C 1356.01,567.169 1379.34,567.502 1402.5,568.5C 1402.5,580.833 1402.5,593.167 1402.5,605.5C 1378.99,605.169 1355.66,605.502 1332.5,606.5C 1332.33,664.501 1332.5,722.501 1333,780.5C 1336.79,809.506 1353.29,821.673 1382.5,817C 1390.09,815.916 1396.92,813.083 1403,808.5C 1403.67,821.167 1403.67,833.833 1403,846.5C 1390.01,853.133 1376.17,856.133 1361.5,855.5C 1317.44,855.943 1292.94,834.276 1288,790.5C 1287.67,785.167 1287.33,779.833 1287,774.5C 1286.5,718.501 1286.33,662.501 1286.5,606.5C 1270.5,606.5 1254.5,606.5 1238.5,606.5C 1238.5,593.5 1238.5,580.5 1238.5,567.5C 1254.5,567.5 1270.5,567.5 1286.5,567.5C 1286.33,544.831 1286.5,522.164 1287,499.5C 1301.28,494.139 1315.78,489.472 1330.5,485.5 Z"/></g>
<g><path style="opacity:1" fill="#8aa5b8" d="M 1330.5,485.5 C 1330.56,484.957 1330.89,484.624 1331.5,484.5C 1332.5,512.159 1332.83,539.825 1332.5,567.5C 1331.83,540.167 1331.17,512.833 1330.5,485.5 Z"/></g>
<g><path style="opacity:1" fill="#3c6888" d="M 643.5,795.5 C 644.496,808.99 644.829,822.656 644.5,836.5C 629.821,845.564 613.821,851.397 596.5,854C 562.12,859.898 529.453,854.898 498.5,839C 454.237,809.815 432.904,768.481 434.5,715C 432.871,667.186 449.204,626.853 483.5,594C 516.937,567.802 554.937,557.135 597.5,562C 613.896,563.515 629.562,567.682 644.5,574.5C 645.666,589.822 645.833,605.156 645,620.5C 612.917,598.57 578.417,593.737 541.5,606C 504.609,624.217 484.442,654.05 481,695.5C 477.797,723.286 482.464,749.619 495,774.5C 517.969,808.889 550.135,823.056 591.5,817C 610.594,813.949 627.927,806.782 643.5,795.5 Z"/></g>
<g><path style="opacity:1" fill="#3c6888" d="M 817.5,561.5 C 849.294,558.491 879.294,564.324 907.5,579C 939.564,600.237 958.731,630.071 965,668.5C 970.478,699.797 969.145,730.797 961,761.5C 938.999,824.033 894.666,855.7 828,856.5C 768.343,856.371 726.343,829.371 702,775.5C 688.075,735.166 687.075,694.499 699,653.5C 719.074,597.938 758.574,567.271 817.5,561.5 Z M 817.5,599.5 C 876.296,595.473 910.463,622.473 920,680.5C 923.497,706.066 922.163,731.399 916,756.5C 902.703,797.282 874.537,817.948 831.5,818.5C 778.817,815.323 747.984,787.656 739,735.5C 736.036,711.904 737.369,688.57 743,665.5C 754.527,628.342 779.36,606.342 817.5,599.5 Z"/></g>
<g><path style="opacity:1" fill="#3c6888" d="M 1020.5,839.5 C 1020.17,823.658 1020.5,807.991 1021.5,792.5C 1056.65,817.022 1094.98,823.855 1136.5,813C 1156.65,804.196 1164.15,789.03 1159,767.5C 1156.43,760.261 1152.26,754.095 1146.5,749C 1139.83,743.659 1132.49,739.325 1124.5,736C 1108.09,729.529 1091.75,722.862 1075.5,716C 1057.56,708.798 1042.72,697.631 1031,682.5C 1017.45,657.326 1017.11,631.993 1030,606.5C 1043.79,586.335 1062.63,573.168 1086.5,567C 1122.54,557.945 1157.88,560.112 1192.5,573.5C 1193.67,588.822 1193.83,604.156 1193,619.5C 1164.21,601.343 1133.04,595.51 1099.5,602C 1068.94,612.28 1060.11,632.113 1073,661.5C 1077.96,667.465 1083.79,672.298 1090.5,676C 1112.5,685.333 1134.5,694.667 1156.5,704C 1171.04,710.876 1183.54,720.376 1194,732.5C 1206.54,751.923 1209.87,772.923 1204,795.5C 1194.3,822.202 1175.8,839.702 1148.5,848C 1110.29,859.625 1072.29,858.959 1034.5,846C 1029.69,844.093 1025.02,841.926 1020.5,839.5 Z"/></g>
<g><path style="opacity:1" fill="#3b6888" d="M 1544.5,561.5 C 1567.5,559.481 1589.84,562.314 1611.5,570C 1636.91,581.944 1652.41,601.778 1658,629.5C 1659.28,636.124 1660.28,642.79 1661,649.5C 1661.5,716.166 1661.67,782.833 1661.5,849.5C 1646.5,849.5 1631.5,849.5 1616.5,849.5C 1616.67,834.83 1616.5,820.163 1616,805.5C 1590.06,846.832 1552.9,862.999 1504.5,854C 1461.82,844.331 1440.16,817.664 1439.5,774C 1440.44,728.724 1462.77,700.057 1506.5,688C 1542.96,681.149 1579.63,675.649 1616.5,671.5C 1617.74,615.464 1590.74,591.964 1535.5,601C 1509.71,605.816 1486.87,616.649 1467,633.5C 1466.18,617.926 1466.34,602.426 1467.5,587C 1491.35,572.773 1517.01,564.273 1544.5,561.5 Z M 1609.5,707.5 C 1611.83,707.5 1614.17,707.5 1616.5,707.5C 1616.88,722.873 1616.38,738.206 1615,753.5C 1605.95,794.214 1580.62,815.88 1539,818.5C 1498.41,815.955 1481.07,794.622 1487,754.5C 1489.39,743.207 1495.56,734.707 1505.5,729C 1511.94,725.78 1518.61,723.113 1525.5,721C 1553.55,715.972 1581.55,711.472 1609.5,707.5 Z"/></g>
<g><path style="opacity:1" fill="#797979" d="M 1933.5,795.5 C 1934.5,808.99 1934.83,822.656 1934.5,836.5C 1911.2,850.325 1885.87,856.658 1858.5,855.5C 1791.35,854.512 1748.18,821.846 1729,757.5C 1720.56,718.241 1723.56,679.907 1738,642.5C 1759.6,596.915 1795.44,570.415 1845.5,563C 1876.29,558.544 1905.95,562.377 1934.5,574.5C 1935.67,589.822 1935.83,605.156 1935,620.5C 1900.25,596.942 1863.42,593.108 1824.5,609C 1791.86,628.41 1774.02,657.243 1771,695.5C 1767.44,725.463 1773.1,753.463 1788,779.5C 1811.77,810.771 1843.27,823.271 1882.5,817C 1901.2,813.644 1918.2,806.477 1933.5,795.5 Z"/></g>
<g><path style="opacity:1" fill="#797979" d="M 2247.5,561.5 C 2278.92,558.736 2308.59,564.569 2336.5,579C 2365.68,597.814 2384.18,624.314 2392,658.5C 2401.58,700.153 2398.58,740.82 2383,780.5C 2361.16,824.684 2325.66,849.517 2276.5,855C 2242.29,859.292 2210.29,852.959 2180.5,836C 2143.97,810.141 2124.14,774.641 2121,729.5C 2118.23,698.879 2122.23,669.212 2133,640.5C 2156.03,592.319 2194.19,565.986 2247.5,561.5 Z M 2245.5,599.5 C 2303.9,594.757 2338.4,621.09 2349,678.5C 2353.37,706.216 2351.71,733.549 2344,760.5C 2329.83,799.132 2301.99,818.466 2260.5,818.5C 2207.83,815.338 2177,787.671 2168,735.5C 2163.01,703.446 2167.34,672.779 2181,643.5C 2195.44,618.528 2216.94,603.861 2245.5,599.5 Z"/></g>
<g><path style="opacity:1" fill="#797979" d="M 2460.5,567.5 C 2475.17,567.5 2489.83,567.5 2504.5,567.5C 2504.33,624.501 2504.5,681.501 2505,738.5C 2505.26,756.875 2509.59,774.208 2518,790.5C 2530.92,809.71 2549.08,819.044 2572.5,818.5C 2605.89,817.275 2629.06,801.275 2642,770.5C 2644.89,762.382 2646.89,754.049 2648,745.5C 2648.33,686.5 2648.67,627.5 2649,568.5C 2663.76,567.509 2678.59,567.176 2693.5,567.5C 2693.5,661.5 2693.5,755.5 2693.5,849.5C 2678.5,849.5 2663.5,849.5 2648.5,849.5C 2648.67,834.496 2648.5,819.496 2648,804.5C 2624.71,844.388 2589.88,861.222 2543.5,855C 2503.94,850.106 2478.44,828.606 2467,790.5C 2463.92,779.358 2461.92,768.025 2461,756.5C 2460.5,693.501 2460.33,630.501 2460.5,567.5 Z"/></g>
<g><path style="opacity:1" fill="#62859e" d="M 1402.5,568.5 C 1403.5,580.989 1403.83,593.656 1403.5,606.5C 1379.83,606.5 1356.17,606.5 1332.5,606.5C 1355.66,605.502 1378.99,605.169 1402.5,605.5C 1402.5,593.167 1402.5,580.833 1402.5,568.5 Z"/></g>
<g><path style="opacity:1" fill="#89a4b7" d="M 1021.5,792.5 C 1020.5,807.991 1020.17,823.658 1020.5,839.5C 1019.17,823.662 1019.17,807.662 1020.5,791.5C 1021.11,791.624 1021.44,791.957 1021.5,792.5 Z"/></g>
<g><path style="opacity:1" fill="#5c819c" d="M 643.5,795.5 C 643.56,794.957 643.893,794.624 644.5,794.5C 645.826,808.661 645.826,822.661 644.5,836.5C 644.829,822.656 644.496,808.99 643.5,795.5 Z"/></g>
<g><path style="opacity:1" fill="#8f8f8f" d="M 1933.5,795.5 C 1933.56,794.957 1933.89,794.624 1934.5,794.5C 1935.83,808.661 1935.83,822.661 1934.5,836.5C 1934.83,822.656 1934.5,808.99 1933.5,795.5 Z"/></g>
<g><path style="opacity:1" fill="#a7a4a3" d="M 184.5,934.5 C 210.5,934.5 236.5,934.5 262.5,934.5C 262.5,940.167 262.5,945.833 262.5,951.5C 243.164,951.333 223.83,951.5 204.5,952C 203.514,962.084 203.181,972.251 203.5,982.5C 222.833,982.5 242.167,982.5 261.5,982.5C 261.5,988.167 261.5,993.833 261.5,999.5C 242.497,999.333 223.497,999.5 204.5,1000C 203.513,1010.75 203.18,1021.59 203.5,1032.5C 223.167,1032.5 242.833,1032.5 262.5,1032.5C 262.5,1038.5 262.5,1044.5 262.5,1050.5C 236.5,1050.5 210.5,1050.5 184.5,1050.5C 184.5,1011.83 184.5,973.167 184.5,934.5 Z"/></g>
<g><path style="opacity:1" fill="#a7a4a3" d="M 1020.5,934.5 C 1030.82,933.005 1035.99,937.338 1036,947.5C 1033.45,954.358 1028.62,956.858 1021.5,955C 1012.62,948.58 1012.29,941.747 1020.5,934.5 Z"/></g>
<g><path style="opacity:1" fill="#a7a4a3" d="M 1360.5,934.5 C 1379.2,934.146 1397.86,934.646 1416.5,936C 1452.06,945.578 1467.22,968.744 1462,1005.5C 1455.88,1029.95 1440.38,1044.45 1415.5,1049C 1397.19,1050.33 1378.86,1050.83 1360.5,1050.5C 1360.5,1011.83 1360.5,973.167 1360.5,934.5 Z M 1380.5,951.5 C 1391.54,951.252 1402.54,951.752 1413.5,953C 1433.04,958.727 1443.04,971.893 1443.5,992.5C 1442.83,1013.37 1432.5,1026.54 1412.5,1032C 1401.51,1032.5 1390.51,1032.67 1379.5,1032.5C 1379.18,1005.43 1379.51,978.426 1380.5,951.5 Z"/></g>
<g><path style="opacity:1" fill="#a7a4a3" d="M 1501.5,934.5 C 1511.82,933.005 1516.99,937.338 1517,947.5C 1514.45,954.358 1509.62,956.858 1502.5,955C 1493.62,948.58 1493.29,941.747 1501.5,934.5 Z"/></g>
<g><path style="opacity:1" fill="#a7a4a3" d="M 1672.5,934.5 C 1682.82,933.005 1687.99,937.338 1688,947.5C 1685.45,954.358 1680.62,956.858 1673.5,955C 1664.62,948.58 1664.29,941.747 1672.5,934.5 Z"/></g>
<g><path style="opacity:1" fill="#a6a4a2" d="M 1901.5,934.5 C 1907.5,934.5 1913.5,934.5 1919.5,934.5C 1919.5,973.167 1919.5,1011.83 1919.5,1050.5C 1913.5,1050.5 1907.5,1050.5 1901.5,1050.5C 1901.5,1011.83 1901.5,973.167 1901.5,934.5 Z"/></g>
<g><path style="opacity:1" fill="#a7a4a3" d="M 2050.5,934.5 C 2058.86,934.169 2067.19,934.502 2075.5,935.5C 2090.5,973.5 2105.5,1011.5 2120.5,1049.5C 2113.19,1050.66 2105.86,1050.83 2098.5,1050C 2095.7,1042.59 2092.7,1035.25 2089.5,1028C 2071.83,1027.33 2054.17,1027.33 2036.5,1028C 2033.41,1035.11 2030.41,1042.28 2027.5,1049.5C 2020.17,1050.83 2012.83,1050.83 2005.5,1049.5C 2020.7,1011.22 2035.7,972.888 2050.5,934.5 Z M 2062.5,954.5 C 2069.91,972.878 2077.24,991.378 2084.5,1010C 2070.17,1010.67 2055.83,1010.67 2041.5,1010C 2048.64,991.549 2055.64,973.049 2062.5,954.5 Z"/></g>
<g><path style="opacity:1" fill="#a7a4a3" d="M 2781.5,934.5 C 2791.82,933.005 2796.99,937.338 2797,947.5C 2794.45,954.358 2789.62,956.858 2782.5,955C 2773.62,948.58 2773.29,941.747 2781.5,934.5 Z"/></g>
<g><path style="opacity:1" fill="#a7a4a3" d="M 1728.5,943.5 C 1734.17,943.5 1739.83,943.5 1745.5,943.5C 1745.5,951.167 1745.5,958.833 1745.5,966.5C 1751.17,966.5 1756.83,966.5 1762.5,966.5C 1762.5,971.833 1762.5,977.167 1762.5,982.5C 1756.83,982.5 1751.17,982.5 1745.5,982.5C 1745.06,999.223 1745.56,1015.89 1747,1032.5C 1751.37,1037.09 1756.37,1037.76 1762,1034.5C 1763.71,1038.62 1765.21,1042.78 1766.5,1047C 1756.9,1053.38 1746.9,1054.04 1736.5,1049C 1733.57,1046.74 1731.4,1043.9 1730,1040.5C 1728.55,1021.22 1728.05,1001.89 1728.5,982.5C 1723.83,982.5 1719.17,982.5 1714.5,982.5C 1714.5,977.167 1714.5,971.833 1714.5,966.5C 1719.17,966.5 1723.83,966.5 1728.5,966.5C 1728.5,958.833 1728.5,951.167 1728.5,943.5 Z"/></g>
<g><path style="opacity:1" fill="#a7a4a3" d="M 2261.5,943.5 C 2267.17,943.5 2272.83,943.5 2278.5,943.5C 2278.5,951.167 2278.5,958.833 2278.5,966.5C 2284.17,966.5 2289.83,966.5 2295.5,966.5C 2295.5,971.833 2295.5,977.167 2295.5,982.5C 2289.83,982.5 2284.17,982.5 2278.5,982.5C 2278.06,999.223 2278.56,1015.89 2280,1032.5C 2284.37,1037.09 2289.37,1037.76 2295,1034.5C 2296.71,1038.62 2298.21,1042.78 2299.5,1047C 2289.9,1053.38 2279.9,1054.04 2269.5,1049C 2266.57,1046.74 2264.4,1043.9 2263,1040.5C 2261.55,1021.22 2261.05,1001.89 2261.5,982.5C 2256.83,982.5 2252.17,982.5 2247.5,982.5C 2247.5,977.167 2247.5,971.833 2247.5,966.5C 2252.17,966.5 2256.83,966.5 2261.5,966.5C 2261.5,958.833 2261.5,951.167 2261.5,943.5 Z"/></g>
<g><path style="opacity:1" fill="#a7a4a3" d="M 2711.5,943.5 C 2717.17,943.5 2722.83,943.5 2728.5,943.5C 2728.5,951.167 2728.5,958.833 2728.5,966.5C 2734.17,966.5 2739.83,966.5 2745.5,966.5C 2745.5,971.833 2745.5,977.167 2745.5,982.5C 2739.83,982.5 2734.17,982.5 2728.5,982.5C 2728.06,999.223 2728.56,1015.89 2730,1032.5C 2734.37,1037.09 2739.37,1037.76 2745,1034.5C 2746.71,1038.62 2748.21,1042.78 2749.5,1047C 2739.9,1053.38 2729.9,1054.04 2719.5,1049C 2716.57,1046.74 2714.4,1043.9 2713,1040.5C 2711.55,1021.22 2711.05,1001.89 2711.5,982.5C 2706.83,982.5 2702.17,982.5 2697.5,982.5C 2697.5,977.167 2697.5,971.833 2697.5,966.5C 2702.17,966.5 2706.83,966.5 2711.5,966.5C 2711.5,958.833 2711.5,951.167 2711.5,943.5 Z"/></g>
<g><path style="opacity:1" fill="#a7a4a3" d="M 341.5,964.5 C 349.305,964.157 356.138,966.49 362,971.5C 363.599,974.378 365.433,977.044 367.5,979.5C 377.127,967.569 389.46,963.069 404.5,966C 413.848,969.498 418.682,976.331 419,986.5C 419.5,1007.83 419.667,1029.16 419.5,1050.5C 413.5,1050.5 407.5,1050.5 401.5,1050.5C 401.667,1030.16 401.5,1009.83 401,989.5C 397.507,981.173 391.34,978.34 382.5,981C 376.475,982.922 371.641,986.422 368,991.5C 367.5,1011.16 367.333,1030.83 367.5,1050.5C 361.833,1050.5 356.167,1050.5 350.5,1050.5C 350.667,1031.16 350.5,1011.83 350,992.5C 349.015,984.181 344.349,980.181 336,980.5C 328.073,980.75 321.74,984.083 317,990.5C 316.5,1010.5 316.333,1030.5 316.5,1050.5C 310.5,1050.5 304.5,1050.5 298.5,1050.5C 298.5,1022.5 298.5,994.5 298.5,966.5C 304.5,966.5 310.5,966.5 316.5,966.5C 316.335,970.182 316.501,973.848 317,977.5C 323.925,970.623 332.092,966.29 341.5,964.5 Z"/></g>
<g><path style="opacity:1" fill="#a7a4a3" d="M 498.5,964.5 C 525.836,966.176 539.503,980.843 539.5,1008.5C 539.883,1023.54 534.549,1036.04 523.5,1046C 510.661,1054.12 497.661,1054.46 484.5,1047C 481,1044.83 478.167,1042 476,1038.5C 475.5,1053.16 475.333,1067.83 475.5,1082.5C 469.5,1082.5 463.5,1082.5 457.5,1082.5C 457.5,1043.83 457.5,1005.17 457.5,966.5C 463.5,966.5 469.5,966.5 475.5,966.5C 475.335,970.182 475.501,973.848 476,977.5C 482.166,970.673 489.666,966.339 498.5,964.5 Z M 490.5,980.5 C 510.243,979.237 520.576,988.571 521.5,1008.5C 519.606,1031.6 507.606,1040.1 485.5,1034C 481.759,1032.26 478.592,1029.76 476,1026.5C 475.333,1014.5 475.333,1002.5 476,990.5C 479.977,985.774 484.811,982.441 490.5,980.5 Z"/></g>
<g><path style="opacity:1" fill="#a7a4a3" d="M 605.5,964.5 C 635.241,964.243 651.241,978.91 653.5,1008.5C 651.225,1035.27 636.725,1049.94 610,1052.5C 583.158,1050.16 568.991,1035.49 567.5,1008.5C 568.594,983.555 581.261,968.889 605.5,964.5 Z M 603.5,980.5 C 623.764,978.76 634.431,988.093 635.5,1008.5C 633.808,1028.37 623.141,1037.54 603.5,1036C 593.256,1032.05 587.423,1024.55 586,1013.5C 584.03,998.095 589.863,987.095 603.5,980.5 Z"/></g>
<g><path style="opacity:1" fill="#a7a4a3" d="M 864.5,964.5 C 886.895,963.934 901.395,974.267 908,995.5C 909.257,1001.77 909.757,1008.1 909.5,1014.5C 887.831,1014.33 866.164,1014.5 844.5,1015C 851.452,1036.14 865.452,1042.81 886.5,1035C 890.01,1033.25 893.343,1031.58 896.5,1030C 898.587,1033.51 900.92,1036.84 903.5,1040C 894.139,1048.27 883.139,1052.43 870.5,1052.5C 839.667,1049.53 825.167,1032.53 827,1001.5C 830.812,980.186 843.312,967.853 864.5,964.5 Z M 866.5,978.5 C 882.58,978.583 891.247,986.583 892.5,1002.5C 876.83,1002.67 861.163,1002.5 845.5,1002C 846.222,988.768 853.222,980.935 866.5,978.5 Z"/></g>
<g><path style="opacity:1" fill="#a7a4a3" d="M 1116.5,964.5 C 1126.39,963.851 1134.89,966.851 1142,973.5C 1143,975.5 1144,977.5 1145,979.5C 1146.46,1003.11 1146.96,1026.78 1146.5,1050.5C 1140.83,1050.5 1135.17,1050.5 1129.5,1050.5C 1129.67,1031.16 1129.5,1011.83 1129,992.5C 1127.01,983.75 1121.51,979.75 1112.5,980.5C 1103.76,980.452 1096.6,983.785 1091,990.5C 1090.5,1010.5 1090.33,1030.5 1090.5,1050.5C 1084.5,1050.5 1078.5,1050.5 1072.5,1050.5C 1072.5,1022.5 1072.5,994.5 1072.5,966.5C 1078.5,966.5 1084.5,966.5 1090.5,966.5C 1090.33,970.514 1090.5,974.514 1091,978.5C 1097.76,970.549 1106.26,965.883 1116.5,964.5 Z"/></g>
<g><path style="opacity:1" fill="#a7a4a3" d="M 1213.5,964.5 C 1226.18,963.926 1236.35,968.593 1244,978.5C 1244.5,974.514 1244.67,970.514 1244.5,966.5C 1250.5,966.5 1256.5,966.5 1262.5,966.5C 1262.67,994.502 1262.5,1022.5 1262,1050.5C 1260.22,1068.62 1250.38,1079.45 1232.5,1083C 1214.68,1086.8 1198.68,1083.13 1184.5,1072C 1187.46,1067.92 1190.29,1063.75 1193,1059.5C 1200.08,1066.7 1208.75,1070.37 1219,1070.5C 1239.9,1068.58 1248.23,1057.25 1244,1036.5C 1228.8,1052.89 1211.96,1054.73 1193.5,1042C 1180.83,1026.82 1177.33,1009.66 1183,990.5C 1188.16,975.834 1198.33,967.167 1213.5,964.5 Z M 1216.5,980.5 C 1227.55,978.794 1236.72,982.128 1244,990.5C 1244.67,1001.83 1244.67,1013.17 1244,1024.5C 1234.13,1035.16 1222.63,1037.33 1209.5,1031C 1201.97,1025.1 1198.3,1017.27 1198.5,1007.5C 1198.34,994.11 1204.34,985.11 1216.5,980.5 Z"/></g>
<g><path style="opacity:1" fill="#a7a4a3" d="M 1581.5,964.5 C 1594.18,963.926 1604.35,968.593 1612,978.5C 1612.5,974.514 1612.67,970.514 1612.5,966.5C 1618.5,966.5 1624.5,966.5 1630.5,966.5C 1630.67,994.502 1630.5,1022.5 1630,1050.5C 1628.22,1068.62 1618.38,1079.45 1600.5,1083C 1582.68,1086.8 1566.68,1083.13 1552.5,1072C 1555.46,1067.92 1558.29,1063.75 1561,1059.5C 1568.08,1066.7 1576.75,1070.37 1587,1070.5C 1607.9,1068.58 1616.23,1057.25 1612,1036.5C 1596.8,1052.89 1579.96,1054.73 1561.5,1042C 1548.83,1026.82 1545.33,1009.66 1551,990.5C 1556.16,975.834 1566.33,967.167 1581.5,964.5 Z M 1584.5,980.5 C 1595.55,978.794 1604.72,982.128 1612,990.5C 1612.67,1001.83 1612.67,1013.17 1612,1024.5C 1602.13,1035.16 1590.63,1037.33 1577.5,1031C 1569.97,1025.1 1566.3,1017.27 1566.5,1007.5C 1566.34,994.11 1572.34,985.11 1584.5,980.5 Z"/></g>
<g><path style="opacity:1" fill="#a7a4a3" d="M 1822.5,964.5 C 1835.1,963.436 1846.26,966.769 1856,974.5C 1859.09,978.682 1861.09,983.349 1862,988.5C 1862.5,1009.16 1862.67,1029.83 1862.5,1050.5C 1856.83,1050.5 1851.17,1050.5 1845.5,1050.5C 1845.82,1047.43 1845.48,1044.43 1844.5,1041.5C 1827.56,1056.03 1810.72,1056.03 1794,1041.5C 1785.4,1027.15 1787.23,1014.32 1799.5,1003C 1815.77,994.825 1830.77,996.658 1844.5,1008.5C 1847.48,983.66 1836.81,974.827 1812.5,982C 1808.1,983.906 1804.1,986.406 1800.5,989.5C 1797.49,985.798 1795.32,981.798 1794,977.5C 1802.2,970.162 1811.7,965.829 1822.5,964.5 Z M 1820.5,1009.5 C 1830.26,1008.34 1838.43,1011.34 1845,1018.5C 1845.67,1022.83 1845.67,1027.17 1845,1031.5C 1837.09,1039.85 1827.59,1042.35 1816.5,1039C 1808.44,1035.37 1805.27,1029.2 1807,1020.5C 1809.62,1014.37 1814.12,1010.71 1820.5,1009.5 Z"/></g>
<g><path style="opacity:1" fill="#a7a4a3" d="M 2360.5,964.5 C 2390.24,964.243 2406.24,978.91 2408.5,1008.5C 2406.23,1035.27 2391.73,1049.94 2365,1052.5C 2338.16,1050.16 2323.99,1035.49 2322.5,1008.5C 2323.59,983.555 2336.26,968.889 2360.5,964.5 Z M 2358.5,980.5 C 2378.76,978.76 2389.43,988.093 2390.5,1008.5C 2388.81,1028.37 2378.14,1037.54 2358.5,1036C 2348.26,1032.05 2342.42,1024.55 2341,1013.5C 2339.03,998.095 2344.86,987.095 2358.5,980.5 Z"/></g>
<g><path style="opacity:1" fill="#a7a4a3" d="M 2484.5,964.5 C 2492.3,964.157 2499.14,966.49 2505,971.5C 2506.6,974.378 2508.43,977.044 2510.5,979.5C 2520.13,967.569 2532.46,963.069 2547.5,966C 2556.85,969.498 2561.68,976.331 2562,986.5C 2562.5,1007.83 2562.67,1029.16 2562.5,1050.5C 2556.5,1050.5 2550.5,1050.5 2544.5,1050.5C 2544.67,1030.16 2544.5,1009.83 2544,989.5C 2540.51,981.173 2534.34,978.34 2525.5,981C 2519.47,982.922 2514.64,986.422 2511,991.5C 2510.5,1011.16 2510.33,1030.83 2510.5,1050.5C 2504.83,1050.5 2499.17,1050.5 2493.5,1050.5C 2493.67,1031.16 2493.5,1011.83 2493,992.5C 2492.02,984.181 2487.35,980.181 2479,980.5C 2471.07,980.75 2464.74,984.083 2460,990.5C 2459.5,1010.5 2459.33,1030.5 2459.5,1050.5C 2453.5,1050.5 2447.5,1050.5 2441.5,1050.5C 2441.5,1022.5 2441.5,994.5 2441.5,966.5C 2447.5,966.5 2453.5,966.5 2459.5,966.5C 2459.33,970.182 2459.5,973.848 2460,977.5C 2466.93,970.623 2475.09,966.29 2484.5,964.5 Z"/></g>
<g><path style="opacity:1" fill="#a7a4a3" d="M 2629.5,964.5 C 2642.1,963.436 2653.26,966.769 2663,974.5C 2666.09,978.682 2668.09,983.349 2669,988.5C 2669.5,1009.16 2669.67,1029.83 2669.5,1050.5C 2663.83,1050.5 2658.17,1050.5 2652.5,1050.5C 2652.82,1047.43 2652.48,1044.43 2651.5,1041.5C 2634.56,1056.03 2617.72,1056.03 2601,1041.5C 2592.4,1027.15 2594.23,1014.32 2606.5,1003C 2622.77,994.825 2637.77,996.658 2651.5,1008.5C 2654.48,983.66 2643.81,974.827 2619.5,982C 2615.1,983.906 2611.1,986.406 2607.5,989.5C 2604.49,985.798 2602.32,981.798 2601,977.5C 2609.2,970.162 2618.7,965.829 2629.5,964.5 Z M 2627.5,1009.5 C 2637.26,1008.34 2645.43,1011.34 2652,1018.5C 2652.67,1022.83 2652.67,1027.17 2652,1031.5C 2644.09,1039.85 2634.59,1042.35 2623.5,1039C 2615.44,1035.37 2612.27,1029.2 2614,1020.5C 2616.62,1014.37 2621.12,1010.71 2627.5,1009.5 Z"/></g>
<g><path style="opacity:1" fill="#a7a4a3" d="M 2866.5,964.5 C 2896.24,964.243 2912.24,978.91 2914.5,1008.5C 2912.23,1035.27 2897.73,1049.94 2871,1052.5C 2844.16,1050.16 2829.99,1035.49 2828.5,1008.5C 2829.59,983.555 2842.26,968.889 2866.5,964.5 Z M 2864.5,980.5 C 2884.76,978.76 2895.43,988.093 2896.5,1008.5C 2894.81,1028.37 2884.14,1037.54 2864.5,1036C 2854.26,1032.05 2848.42,1024.55 2847,1013.5C 2845.03,998.095 2850.86,987.095 2864.5,980.5 Z"/></g>
<g><path style="opacity:1" fill="#a7a4a3" d="M 2991.5,964.5 C 3001.39,963.851 3009.89,966.851 3017,973.5C 3018,975.5 3019,977.5 3020,979.5C 3021.46,1003.11 3021.96,1026.78 3021.5,1050.5C 3015.83,1050.5 3010.17,1050.5 3004.5,1050.5C 3004.67,1031.16 3004.5,1011.83 3004,992.5C 3002.01,983.75 2996.51,979.75 2987.5,980.5C 2978.76,980.452 2971.6,983.785 2966,990.5C 2965.5,1010.5 2965.33,1030.5 2965.5,1050.5C 2959.5,1050.5 2953.5,1050.5 2947.5,1050.5C 2947.5,1022.5 2947.5,994.5 2947.5,966.5C 2953.5,966.5 2959.5,966.5 2965.5,966.5C 2965.33,970.514 2965.5,974.514 2966,978.5C 2972.76,970.549 2981.26,965.883 2991.5,964.5 Z"/></g>
<g><path style="opacity:1" fill="#a7a4a3" d="M 980.5,965.5 C 982.833,965.5 985.167,965.5 987.5,965.5C 987.666,971.176 987.499,976.843 987,982.5C 978.227,980.987 970.393,983.153 963.5,989C 962.299,989.903 961.465,991.069 961,992.5C 960.5,1011.83 960.333,1031.16 960.5,1050.5C 954.5,1050.5 948.5,1050.5 942.5,1050.5C 942.5,1022.5 942.5,994.5 942.5,966.5C 948.5,966.5 954.5,966.5 960.5,966.5C 960.334,970.514 960.501,974.514 961,978.5C 966.516,972.506 973.016,968.173 980.5,965.5 Z"/></g>
<g><path style="opacity:1" fill="#a7a4a3" d="M 674.5,967.5 C 680.645,966.51 686.978,966.177 693.5,966.5C 698.821,986.966 704.655,1007.3 711,1027.5C 717.918,1007.58 724.751,987.581 731.5,967.5C 736.719,966.196 741.886,966.196 747,967.5C 753.669,987.511 760.335,1007.51 767,1027.5C 773.401,1007.63 779.401,987.63 785,967.5C 791.084,966.358 797.251,966.191 803.5,967C 794.74,994.448 786.073,1021.95 777.5,1049.5C 771.202,1050.5 764.868,1050.83 758.5,1050.5C 752.709,1029.63 746.209,1008.96 739,988.5C 732.191,1009.09 725.691,1029.76 719.5,1050.5C 713.167,1050.5 706.833,1050.5 700.5,1050.5C 692.589,1022.5 683.922,994.833 674.5,967.5 Z"/></g>
<g><path style="opacity:1" fill="#a6a4a2" d="M 1016.5,966.5 C 1022.5,966.5 1028.5,966.5 1034.5,966.5C 1034.5,994.5 1034.5,1022.5 1034.5,1050.5C 1028.5,1050.5 1022.5,1050.5 1016.5,1050.5C 1016.5,1022.5 1016.5,994.5 1016.5,966.5 Z"/></g>
<g><path style="opacity:1" fill="#a6a4a2" d="M 1497.5,966.5 C 1503.5,966.5 1509.5,966.5 1515.5,966.5C 1515.5,994.5 1515.5,1022.5 1515.5,1050.5C 1509.5,1050.5 1503.5,1050.5 1497.5,1050.5C 1497.5,1022.5 1497.5,994.5 1497.5,966.5 Z"/></g>
<g><path style="opacity:1" fill="#a6a4a2" d="M 1668.5,966.5 C 1674.5,966.5 1680.5,966.5 1686.5,966.5C 1686.5,994.5 1686.5,1022.5 1686.5,1050.5C 1680.5,1050.5 1674.5,1050.5 1668.5,1050.5C 1668.5,1022.5 1668.5,994.5 1668.5,966.5 Z"/></g>
<g><path style="opacity:1" fill="#a7a4a3" d="M 2144.5,966.5 C 2150.5,966.5 2156.5,966.5 2162.5,966.5C 2162.33,986.169 2162.5,1005.84 2163,1025.5C 2165.29,1033.45 2170.63,1037.11 2179,1036.5C 2187.94,1036.63 2195.27,1033.3 2201,1026.5C 2201.5,1006.5 2201.67,986.503 2201.5,966.5C 2207.17,966.5 2212.83,966.5 2218.5,966.5C 2218.5,994.5 2218.5,1022.5 2218.5,1050.5C 2212.83,1050.5 2207.17,1050.5 2201.5,1050.5C 2201.82,1046.77 2201.49,1043.11 2200.5,1039.5C 2188.54,1051.16 2174.54,1054.66 2158.5,1050C 2149.89,1045.97 2145.39,1039.14 2145,1029.5C 2144.5,1008.5 2144.33,987.503 2144.5,966.5 Z"/></g>
<g><path style="opacity:1" fill="#a6a4a2" d="M 2777.5,966.5 C 2783.5,966.5 2789.5,966.5 2795.5,966.5C 2795.5,994.5 2795.5,1022.5 2795.5,1050.5C 2789.5,1050.5 2783.5,1050.5 2777.5,1050.5C 2777.5,1022.5 2777.5,994.5 2777.5,966.5 Z"/></g>
</svg>
